<svg width="110" height="29" viewBox="0 0 110 29" fill="none" xmlns="http://www.w3.org/2000/svg">
<path d="M0 28.7674V1.62834H5.20235L16.7718 20.7807H14.0153L25.3906 1.62834H30.5541L30.6317 28.7674H24.7306L24.6917 10.6618H25.7788L16.6941 25.8984H13.86L4.58117 10.6618H5.90117V28.7674H0Z" fill="#6A65FF"/>
<path d="M50.163 28.7674V24.4251L49.9689 23.611V16.2059C49.9689 14.6292 49.503 13.4144 48.5712 12.5615C47.6653 11.6827 46.2936 11.2433 44.4559 11.2433C43.2395 11.2433 42.0489 11.4501 40.8842 11.8636C39.7195 12.2513 38.7359 12.7812 37.9336 13.4532L36.3806 10.6618C37.4418 9.80882 38.7101 9.16266 40.1854 8.72326C41.6865 8.25802 43.2524 8.0254 44.883 8.0254C47.7042 8.0254 49.8783 8.71034 51.4053 10.0802C52.9324 11.4501 53.6959 13.5437 53.6959 16.361V28.7674H50.163ZM43.4077 29C41.8806 29 40.5348 28.7415 39.3701 28.2246C38.2312 27.7077 37.3512 26.9969 36.7301 26.0922C36.1089 25.1618 35.7983 24.115 35.7983 22.9519C35.7983 21.8405 36.0571 20.8324 36.5748 19.9278C37.1183 19.0232 37.9854 18.2995 39.1759 17.7567C40.3924 17.2139 42.023 16.9425 44.0677 16.9425H50.59V19.6176H44.223C42.3595 19.6176 41.1042 19.9278 40.4571 20.5481C39.8101 21.1684 39.4865 21.918 39.4865 22.7968C39.4865 23.8048 39.8877 24.619 40.6901 25.2393C41.4924 25.8338 42.6054 26.131 44.0289 26.131C45.4265 26.131 46.643 25.8209 47.6783 25.2005C48.7395 24.5802 49.503 23.6756 49.9689 22.4866L50.7065 25.0455C50.2148 26.2602 49.3477 27.2295 48.1053 27.9532C46.863 28.6511 45.2971 29 43.4077 29Z" fill="#6A65FF"/>
<path d="M60.5932 28.7674V0H64.3202V28.7674H60.5932Z" fill="#6A65FF"/>
<path d="M80.5988 29C78.3988 29 76.4576 28.5477 74.7753 27.643C73.1188 26.7384 71.8247 25.4978 70.8929 23.9211C69.987 22.3445 69.5341 20.5352 69.5341 18.4933C69.5341 16.4514 69.9741 14.6422 70.8541 13.0655C71.76 11.4889 72.9894 10.2611 74.5423 9.38235C76.1211 8.47772 77.8941 8.0254 79.8611 8.0254C81.8541 8.0254 83.6141 8.46479 85.1411 9.34358C86.6682 10.2224 87.8588 11.463 88.7129 13.0655C89.5929 14.6422 90.0329 16.4902 90.0329 18.6096C90.0329 18.7647 90.02 18.9456 89.9941 19.1524C89.9941 19.3592 89.9811 19.553 89.9552 19.734H72.4459V17.0588H88.0141L86.5 17.9893C86.5258 16.6711 86.2541 15.4951 85.6847 14.4612C85.1153 13.4274 84.3258 12.6261 83.3164 12.0575C82.3329 11.463 81.1811 11.1658 79.8611 11.1658C78.567 11.1658 77.4153 11.463 76.4059 12.0575C75.3964 12.6261 74.607 13.4403 74.0376 14.5C73.4682 15.5339 73.1835 16.7228 73.1835 18.0668V18.6872C73.1835 20.057 73.4941 21.2848 74.1153 22.3703C74.7623 23.43 75.6553 24.2571 76.7941 24.8516C77.9329 25.4461 79.24 25.7433 80.7153 25.7433C81.9317 25.7433 83.0317 25.5365 84.0153 25.123C85.0247 24.7094 85.9047 24.0891 86.6553 23.262L88.7129 25.6658C87.7811 26.7513 86.6164 27.5784 85.2188 28.1471C83.847 28.7157 82.307 29 80.5988 29Z" fill="#6A65FF"/>
<path d="M101.109 29C99.4012 29 97.7706 28.7674 96.2177 28.3021C94.6906 27.8369 93.4871 27.2683 92.6071 26.5963L94.16 23.6497C95.04 24.2442 96.1271 24.7482 97.4212 25.1618C98.7153 25.5753 100.035 25.7821 101.381 25.7821C103.115 25.7821 104.358 25.5365 105.108 25.0455C105.885 24.5544 106.273 23.8694 106.273 22.9906C106.273 22.3445 106.04 21.8405 105.574 21.4786C105.108 21.1168 104.487 20.8454 103.711 20.6644C102.96 20.4835 102.119 20.3284 101.187 20.1992C100.255 20.0441 99.3235 19.8632 98.3918 19.6564C97.46 19.4238 96.6059 19.1136 95.8294 18.7259C95.053 18.3124 94.4318 17.7567 93.9659 17.0588C93.5 16.3351 93.2671 15.3788 93.2671 14.1898C93.2671 12.9492 93.6165 11.8636 94.3153 10.9332C95.0141 10.0027 95.9977 9.29189 97.2659 8.8008C98.56 8.28387 100.087 8.0254 101.847 8.0254C103.193 8.0254 104.552 8.1934 105.924 8.52941C107.321 8.83957 108.46 9.29189 109.34 9.88636L107.748 12.8329C106.816 12.2126 105.846 11.7861 104.836 11.5535C103.827 11.3209 102.818 11.2045 101.808 11.2045C100.178 11.2045 98.9612 11.4759 98.1588 12.0187C97.3565 12.5357 96.9553 13.2077 96.9553 14.0348C96.9553 14.7326 97.1882 15.2754 97.6541 15.6631C98.1459 16.025 98.7671 16.3093 99.5177 16.516C100.294 16.7228 101.148 16.9037 102.08 17.0588C103.012 17.1881 103.944 17.369 104.875 17.6016C105.807 17.8084 106.648 18.1056 107.399 18.4933C108.175 18.881 108.796 19.4238 109.262 20.1217C109.754 20.8195 110 21.75 110 22.9131C110 24.1537 109.638 25.2264 108.913 26.131C108.188 27.0356 107.166 27.7464 105.846 28.2634C104.526 28.7545 102.947 29 101.109 29Z" fill="#6A65FF"/>
</svg>
